<svg xmlns="http://www.w3.org/2000/svg" viewBox="0 0 64 64">
  <circle cx="32" cy="32" r="30" fill="#FFF8E1"/>
  <path d="M12 44h40c0 6.6-5.4 12-12 12H24c-6.6 0-12-5.4-12-12z" fill="#F4A261"/>
  <rect x="10" y="36" width="44" height="8" rx="4" fill="#8D6E63"/>
  <path d="M10 36h44l-4 4H14z" fill="#FFD54F"/>
  <path d="M10 32c2-2 6-2 8 0s6 2 8 0 6-2 8 0 6 2 8 0 6-2 8 0" stroke="#66BB6A" stroke-width="4" stroke-linecap="round" fill="none"/>
  <path d="M12 28h40c0-8.8-7.2-16-16-16h-8c-8.8 0-16 7.2-16 16z" fill="#F4A261"/>
  <circle cx="24" cy="18" r="1.5" fill="#FFE0B2"/><circle cx="36" cy="20" r="1.5" fill="#FFE0B2"/><circle cx="44" cy="24" r="1.5" fill="#FFE0B2"/><circle cx="18" cy="24" r="1.5" fill="#FFE0B2"/><circle cx="32" cy="16" r="1.5" fill="#FFE0B2"/>
</svg>